<svg width="10" height="16" viewBox="0 0 10 16" fill="none" xmlns="http://www.w3.org/2000/svg">
<path d="M8 0.0444336C8.04444 0.088878 8.04445 0.133322 8.08889 0.177767C8.66667 0.755545 9.24444 1.33332 9.82222 1.9111C7.77778 3.95554 5.77778 5.95554 3.73333 7.99999C5.77778 10.0444 7.82222 12.0889 9.82222 14.0889C9.2 14.7111 8.57778 15.3333 7.95556 15.9555C5.33333 13.3333 2.66667 10.6667 0 7.99999C0.0444444 7.95554 0.088889 7.9111 0.133333 7.86666C2.71111 5.28888 5.33333 2.7111 7.91111 0.133322C7.91111 0.088878 7.95556 0.088878 8 0.0444336C7.95556 0.0444336 7.95556 0.0444336 8 0.0444336Z" fill="#34502B"/>
</svg>
