<?xml version="1.0" encoding="UTF-8"?>
<!-- Created with Inkscape (http://www.inkscape.org/) -->
<svg width="16" height="16" version="1.1" viewBox="0 0 16 16" xml:space="preserve" xmlns="http://www.w3.org/2000/svg"><g transform="rotate(180 7.9806 8.2087)" fill="#34502b"><path transform="translate(.10665 -.49609)" d="m1.8613 2.5625c-0.72526 0-1.3105 0.66377-1.3105 1.4883 0 0.82451 0.58528 1.4883 1.3105 1.4883h11.988c0.72526 0 1.3086-0.66377 1.3086-1.4883 0-0.82451-0.58333-1.4883-1.3086-1.4883z" stop-color="#000000" style="-inkscape-stroke:none;font-variation-settings:normal"/><path transform="translate(.10665 4.1579)" d="m1.8613 2.5625c-0.72526 0-1.3105 0.66377-1.3105 1.4883 0 0.82451 0.58528 1.4883 1.3105 1.4883h11.988c0.72526 0 1.3086-0.66377 1.3086-1.4883 0-0.82451-0.58333-1.4883-1.3086-1.4883z" stop-color="#000000" style="-inkscape-stroke:none;font-variation-settings:normal"/><path transform="translate(.10665 8.8119)" d="m1.8613 2.5625c-0.72526 0-1.3105 0.66377-1.3105 1.4883 0 0.82451 0.58528 1.4883 1.3105 1.4883h11.988c0.72526 0 1.3086-0.66377 1.3086-1.4883 0-0.82451-0.58333-1.4883-1.3086-1.4883z" stop-color="#000000" style="-inkscape-stroke:none;font-variation-settings:normal"/></g></svg>
